<svg width="30" height="30" viewBox="0 0 30 30" fill="none" xmlns="http://www.w3.org/2000/svg">
<path d="M24.9197 24.9259H20.5883V18.1386C20.5883 16.5201 20.5555 14.4373 18.3312 14.4373C16.0729 14.4373 15.7279 16.1985 15.7279 18.0191V24.9259H11.3965V10.9688H15.5573V12.8711H15.6134C16.1948 11.7743 17.6085 10.6165 19.7205 10.6165C24.1093 10.6165 24.921 13.5051 24.921 17.2648L24.9197 24.9259ZM6.50447 9.05897C5.11022 9.05897 3.99019 7.93041 3.99019 6.54225C3.99019 5.15531 5.11144 4.02797 6.50447 4.02797C7.89384 4.02797 9.01997 5.15531 9.01997 6.54225C9.01997 7.93041 7.89263 9.05897 6.50447 9.05897ZM8.67628 24.9259H4.33266V10.9688H8.67628V24.9259ZM27.0867 0H2.15841C0.96525 0 0 0.943313 0 2.10722V27.1429C0 28.3078 0.96525 29.25 2.15841 29.25H27.0831C28.275 29.25 29.25 28.3078 29.25 27.1429V2.10722C29.25 0.943313 28.275 0 27.0831 0H27.0867Z" fill="black"/>
</svg>
