<svg width="76" height="59" viewBox="0 0 76 59" fill="none" xmlns="http://www.w3.org/2000/svg">
<path d="M6.72949 53.1162C2.35093 48.4679 0 43.2515 0 34.7953C0 19.9226 10.4402 6.58954 25.63 0L29.4239 5.85484C15.2492 13.5244 12.4788 23.472 11.3715 29.745C13.6537 28.5648 16.6412 28.1495 19.57 28.4211C27.2386 29.1321 33.2826 35.4272 33.2826 43.2515C33.2826 51.4667 26.6227 58.1265 18.4074 58.1265C13.8469 58.1265 9.48583 56.0419 6.72949 53.1162ZM49.2294 53.1162C44.8511 48.4679 42.5 43.2515 42.5 34.7953C42.5 19.9226 52.9401 6.58954 68.13 0L71.924 5.85484C57.749 13.5244 54.9789 23.472 53.8713 29.745C56.1536 28.5648 59.1413 28.1495 62.07 28.4211C69.7387 29.1321 75.7826 35.4272 75.7826 43.2515C75.7826 51.4667 69.1228 58.1265 60.9076 58.1265C56.3469 58.1265 51.986 56.0419 49.2294 53.1162Z" fill="#42A5F5"/>
</svg>
