<svg width="26" height="27" viewBox="0 0 26 27" fill="none" xmlns="http://www.w3.org/2000/svg">
<path d="M19.1677 18.3794L23.694 22.9057L22.1994 24.4003L17.6731 19.874C16.0456 21.1761 13.9817 21.955 11.7369 21.955C6.4863 21.955 2.22498 17.6937 2.22498 12.4431C2.22498 7.19257 6.4863 2.93125 11.7369 2.93125C16.9874 2.93125 21.2487 7.19257 21.2487 12.4431C21.2487 14.6879 20.4698 16.7519 19.1677 18.3794ZM17.0473 17.5952C18.3397 16.2633 19.135 14.4465 19.135 12.4431C19.135 8.35566 15.8243 5.045 11.7369 5.045C7.64939 5.045 4.33873 8.35566 4.33873 12.4431C4.33873 16.5306 7.64939 19.8412 11.7369 19.8412C13.7403 19.8412 15.557 19.0459 16.8889 17.7536L17.0473 17.5952Z" fill="black"/>
</svg>
