<svg width="34" height="34" viewBox="0 0 34 34" fill="none" xmlns="http://www.w3.org/2000/svg">
<path d="M-7.28523e-07 16.6668C-1.13067e-06 7.46683 7.46667 0.000160845 16.6667 0.000160442C25.8667 0.00016004 33.3333 7.46683 33.3333 16.6668C33.3333 25.8668 25.8667 33.3335 16.6667 33.3335C7.46667 33.3335 -3.26378e-07 25.8668 -7.28523e-07 16.6668ZM30 16.6668C30 9.30016 24.0333 3.33349 16.6667 3.33349C9.3 3.33349 3.33333 9.30016 3.33333 16.6668C3.33333 24.0335 9.3 30.0002 16.6667 30.0002C24.0333 30.0002 30 24.0335 30 16.6668ZM16.6667 15.0002L23.3333 15.0002L23.3333 18.3335L16.6667 18.3335L16.6667 23.3335L10 16.6668L16.6667 10.0002L16.6667 15.0002Z" fill="white"/>
</svg>
