<svg width="68" height="58" viewBox="0 0 68 58" fill="none" xmlns="http://www.w3.org/2000/svg">
<path d="M14.8291 16.9013C18.8503 10.5443 25.9347 6.33329 34.0006 6.33329C42.0665 6.33329 49.151 10.5443 53.1723 16.9013L57.9612 13.872C52.9451 5.94226 44.0901 0.666626 34.0006 0.666626C23.9113 0.666626 15.0561 5.94226 10.0401 13.872L14.8291 16.9013ZM34.0006 51.6666C25.9347 51.6666 18.8503 47.4557 14.8291 41.0986L10.0401 44.128C15.0561 52.0576 23.9113 57.3333 34.0006 57.3333C44.0901 57.3333 52.9451 52.0576 57.9612 44.128L53.1723 41.0986C49.151 47.4557 42.0665 51.6666 34.0006 51.6666ZM34 17.6666C35.5648 17.6666 36.8333 18.9352 36.8333 20.5C36.8333 22.0648 35.5648 23.3333 34 23.3333C32.4351 23.3333 31.1667 22.0648 31.1667 20.5C31.1667 18.9352 32.4351 17.6666 34 17.6666ZM34 29C38.6945 29 42.5 25.1945 42.5 20.5C42.5 15.8056 38.6945 12 34 12C29.3054 12 25.5 15.8056 25.5 20.5C25.5 25.1945 29.3054 29 34 29ZM34 37.5C30.8703 37.5 28.3333 40.0369 28.3333 43.1666H22.6667C22.6667 36.9075 27.7408 31.8333 34 31.8333C40.2591 31.8333 45.3333 36.9075 45.3333 43.1666H39.6667C39.6667 40.0369 37.1297 37.5 34 37.5ZM8.5 26.1666C6.93521 26.1666 5.66667 27.4351 5.66667 29C5.66667 30.5648 6.93521 31.8333 8.5 31.8333C10.0648 31.8333 11.3333 30.5648 11.3333 29C11.3333 27.4351 10.0648 26.1666 8.5 26.1666ZM0 29C0 24.3054 3.80559 20.5 8.5 20.5C13.1944 20.5 17 24.3054 17 29C17 33.6945 13.1944 37.5 8.5 37.5C3.80559 37.5 0 33.6945 0 29ZM56.6667 29C56.6667 27.4351 57.9351 26.1666 59.5 26.1666C61.0648 26.1666 62.3333 27.4351 62.3333 29C62.3333 30.5648 61.0648 31.8333 59.5 31.8333C57.9351 31.8333 56.6667 30.5648 56.6667 29ZM59.5 20.5C54.8054 20.5 51 24.3054 51 29C51 33.6945 54.8054 37.5 59.5 37.5C64.1945 37.5 68 33.6945 68 29C68 24.3054 64.1945 20.5 59.5 20.5Z" fill="black"/>
</svg>
