<svg width="40" height="44" viewBox="0 0 40 44" fill="none" xmlns="http://www.w3.org/2000/svg">
<path d="M21.1666 27.6917V32.0446C19.8633 31.584 18.461 31.3334 17 31.3334C10.0964 31.3334 4.49998 36.9298 4.49998 43.8334H0.333313C0.333313 34.6286 7.79523 27.1667 17 27.1667C18.4387 27.1667 19.835 27.349 21.1666 27.6917ZM17 25.0834C10.0937 25.0834 4.49998 19.4896 4.49998 12.5834C4.49998 5.67712 10.0937 0.083374 17 0.083374C23.9062 0.083374 29.5 5.67712 29.5 12.5834C29.5 19.4896 23.9062 25.0834 17 25.0834ZM17 20.9167C21.6041 20.9167 25.3333 17.1875 25.3333 12.5834C25.3333 7.97921 21.6041 4.25004 17 4.25004C12.3958 4.25004 8.66665 7.97921 8.66665 12.5834C8.66665 17.1875 12.3958 20.9167 17 20.9167ZM29.5 33.4167V27.1667H33.6666V33.4167H39.9166V37.5834H33.6666V43.8334H29.5V37.5834H23.25V33.4167H29.5Z" fill="white"/>
</svg>
