<svg width="32" height="32" viewBox="0 0 32 32" fill="none" xmlns="http://www.w3.org/2000/svg">
<path d="M16 0.166748C24.7444 0.166748 31.8333 7.25557 31.8333 16.0001C31.8333 24.7445 24.7444 31.8334 16 31.8334C7.25545 31.8334 0.166626 24.7445 0.166626 16.0001H3.33329C3.33329 22.9957 9.00435 28.6667 16 28.6667C22.9956 28.6667 28.6666 22.9957 28.6666 16.0001C28.6666 9.00447 22.9956 3.33341 16 3.33341C11.6461 3.33341 7.80537 5.53004 5.52543 8.87546L9.66663 8.87508V12.0417H0.166626V2.54175H3.33329L3.33312 6.49878C6.22183 2.65377 10.8204 0.166748 16 0.166748ZM17.5833 8.08341L17.583 15.343L22.7174 20.4784L20.4783 22.7175L14.4163 16.654L14.4166 8.08341H17.5833Z" fill="black"/>
</svg>
