<svg width="34" height="34" viewBox="0 0 34 34" fill="none" xmlns="http://www.w3.org/2000/svg">
<path d="M15.765 0.325439L31.4392 2.56461L33.6783 18.2389L19.1237 32.7934C18.5054 33.4118 17.503 33.4118 16.8845 32.7934L1.2104 17.1193C0.592058 16.5009 0.592058 15.4984 1.2104 14.88L15.765 0.325439ZM16.8845 3.6842L4.56915 15.9996L18.0041 29.4346L30.3196 17.1193L28.6403 5.36357L16.8845 3.6842ZM20.2434 13.7604C19.0067 12.5238 19.0067 10.5188 20.2434 9.28212C21.48 8.04547 23.485 8.04547 24.7217 9.28212C25.9583 10.5188 25.9583 12.5238 24.7217 13.7604C23.485 14.9972 21.48 14.9972 20.2434 13.7604Z" fill="black"/>
</svg>
