<svg width="52" height="58" viewBox="0 0 52 58" fill="none" xmlns="http://www.w3.org/2000/svg">
<path d="M16.3513 31.2992C16.1761 30.5614 16.0833 29.7916 16.0833 29C16.0833 28.2086 16.176 27.4388 16.3512 26.701L13.5416 25.0789L16.3749 20.1713L19.1865 21.7946C20.3003 20.741 21.6582 19.9429 23.1667 19.494V16.25H28.8333V19.494C30.3418 19.9428 31.6995 20.741 32.8133 21.7945L35.6251 20.1711L38.4587 25.0786L35.6486 26.7007C35.824 27.4388 35.9167 28.2086 35.9167 29C35.9167 29.7913 35.824 30.5611 35.6489 31.2989L38.4587 32.921L35.6254 37.8286L32.8136 36.2051C31.6998 37.2588 30.3421 38.057 28.8336 38.5058V41.75H23.1669V38.5061C21.6585 38.0573 20.3006 37.2591 19.1867 36.2054L16.3751 37.8289L13.5416 32.9213L16.3513 31.2992ZM26 33.25C28.3471 33.25 30.25 31.3471 30.25 29C30.25 26.6528 28.3471 24.75 26 24.75C23.6529 24.75 21.75 26.6528 21.75 29C21.75 31.3471 23.6529 33.25 26 33.25ZM34.5 6.33329H6.16667V51.6666H45.8333V17.6666H34.5V6.33329ZM0.5 3.47673C0.5 1.92477 1.76789 0.666626 3.32908 0.666626H37.3333L51.4992 14.8333L51.5 54.4787C51.5 56.0552 50.2394 57.3333 48.6854 57.3333H3.31463C1.76015 57.3333 0.5 56.0433 0.5 54.5232V3.47673Z" fill="black"/>
</svg>
